<svg xmlns="http://www.w3.org/2000/svg" version="1.1" xmlns:xlink="http://www.w3.org/1999/xlink" xmlns:svgjs="http://svgjs.dev/svgjs" width="128" height="128" viewBox="0 0 128 128"><g transform="matrix(0.8046875,0,0,0.8046875,12.366820388374727,-0.3185084228515649)"><svg viewBox="0 0 77 96" data-background-color="#ffffff" preserveAspectRatio="xMidYMid meet" height="159" width="128" xmlns="http://www.w3.org/2000/svg" xmlns:xlink="http://www.w3.org/1999/xlink"><g id="tight-bounds" transform="matrix(1,0,0,1,0.09956145723442944,0.25950000000000273)"><svg viewBox="0 0 76.80087708553114 95.481" height="95.481" width="76.80087708553114"><g><svg viewBox="0 0 76.80087708553114 95.481" height="95.481" width="76.80087708553114"><g><svg viewBox="0 0 76.80087708553114 95.481" height="95.481" width="76.80087708553114"><g id="textblocktransform"><svg viewBox="0 0 76.80087708553114 95.481" height="95.481" width="76.80087708553114" id="textblock"><g><svg viewBox="0 0 76.80087708553114 95.481" height="95.481" width="76.80087708553114"><g><svg viewBox="0 0 76.80087708553114 95.481" height="95.481" width="76.80087708553114"><g><svg xmlns="http://www.w3.org/2000/svg" xmlns:xlink="http://www.w3.org/1999/xlink" version="1.1" x="0" y="0" viewBox="28.445038649769977 22.693 40.07147769989596 49.81798265145822" enable-background="new 0 0 100 100" xml:space="preserve" height="95.481" width="76.80087708553114" class="icon-icon-0" data-fill-palette-color="accent" id="icon-0"><path d="M28.546 49.117C28.751 49.724 28.73 50.303 28.599 50.924 28.503 51.381 28.541 51.881 28.598 52.354 28.931 55.139 29.286 57.922 29.637 60.706 29.963 63.286 30.421 65.856 30.576 68.444 30.667 69.95 30.934 71.266 31.993 72.481 32.257 72.481 32.608 72.557 32.909 72.467 34.18 72.084 35.482 72.147 36.778 72.112 39.372 72.04 41.966 71.987 44.561 71.924 44.766 71.92 44.973 71.918 45.174 71.887 47.402 71.532 49.626 71.164 51.854 70.813 52.596 70.698 53.34 70.571 54.088 70.526 55.793 70.428 57.508 70.444 59.207 70.286 60.317 70.182 61.406 70.165 62.458 70.491 63.154 70.708 63.805 70.651 64.473 70.511 65.752 70.24 66.313 69.538 66.337 68.222 66.356 67.197 66.31 66.167 66.398 65.148 66.648 62.287 66.886 59.423 67.258 56.576 67.487 54.822 67.471 53 68.193 51.346 68.742 50.09 68.544 48.955 67.961 47.811 67.394 46.7 66.772 46.407 65.474 46.526 63.851 46.676 62.224 46.827 60.595 46.887 57.526 47 54.453 47.039 51.383 47.131 50.156 47.168 48.931 47.262 47.705 47.334 46.208 47.422 44.71 47.508 43.214 47.611 42.533 47.658 41.857 47.797 41.177 47.804 39.673 47.822 38.169 47.79 36.665 47.765 34.345 47.724 32.013 47.869 29.717 47.367 29.461 47.31 29.182 47.359 28.909 47.359 28.452 47.914 28.336 48.498 28.546 49.117M32.249 51.502C34.367 51.481 36.487 51.482 38.606 51.461A76 76 0 0 0 41.885 51.379C43.112 51.315 44.335 51.19 45.562 51.113 47.268 51.006 48.975 50.888 50.683 50.832 53.547 50.738 56.41 50.543 59.276 50.969 60.194 51.104 61.175 50.91 62.114 50.772 62.998 50.641 63.854 50.565 64.661 50.836 64.755 51.041 64.87 51.17 64.857 51.283 64.524 54.41 64.175 57.535 63.835 60.66 63.746 61.474 63.678 62.291 63.593 63.105 63.515 63.853 63.443 64.603 63.339 65.347 63.256 65.947 62.93 66.361 62.3 66.451 61.289 66.596 60.274 66.859 59.265 66.834 54.66 66.719 50.134 67.438 45.595 68.027 44.65 68.148 43.699 68.297 42.749 68.297 40.222 68.295 37.708 68.777 35.176 68.492 34.708 68.439 34.244 68.357 33.586 68.26 33.056 65.334 32.546 62.586 32.064 59.834 31.594 57.16 31.903 54.432 31.474 51.668 31.745 51.607 31.996 51.506 32.249 51.502" fill="#000000" data-fill-palette-color="accent"></path><path d="M30.007 41.35C28.903 41.311 28.507 41.737 28.721 42.817 28.774 43.085 28.858 43.344 28.924 43.61 29.334 45.264 29.494 45.342 31.149 45.282 34.432 45.161 37.717 45.108 41.002 44.999 44.764 44.872 48.534 45.05 52.287 44.55 54.592 44.245 56.917 44.111 59.251 44.298 61.493 44.48 63.768 44.247 65.979 44.849 66.235 44.917 66.526 44.886 66.797 44.869 67.347 44.832 67.862 44.349 67.869 43.812 67.889 42.326 67.015 40.339 64.757 40.64 62.713 40.913 60.689 40.474 58.656 40.267 57.672 38.378 56.67 36.591 56.014 34.638 55.015 31.658 53.978 28.691 53.017 25.699 52.579 24.332 51.927 23.22 50.584 22.693 49.701 22.982 49.479 23.578 49.624 24.338 49.686 24.668 49.859 24.977 49.985 25.295 51.05 27.963 52.141 30.617 52.935 33.389 53.33 34.764 53.945 36.077 54.45 37.42 54.802 38.358 55.137 39.303 55.533 40.391 50.613 40.977 45.843 41.266 41.059 41.366 40.665 41.374 40.269 41.229 39.731 41.13 40.065 40.093 40.21 39.032 40.712 38.185 42.83 34.597 44.692 30.853 47.152 27.466 47.624 26.818 47.892 26.023 48.254 25.296 47.94 24.663 47.711 24.087 47.381 23.575 47.042 23.05 46.589 22.622 45.725 22.868 44.91 24.261 44.063 25.733 43.187 27.188 42.871 27.713 42.489 28.202 42.13 28.702 41.892 29.034 41.608 29.339 41.401 29.69 40.055 31.991 38.763 34.325 37.375 36.598 36.518 38.002 35.732 39.399 35.852 41.159 34.914 41.243 34.102 41.36 33.288 41.382A54 54 0 0 1 30.007 41.35" fill="#000000" data-fill-palette-color="accent"></path><path d="M42.167 64.688C42.233 65.151 42.377 65.618 42.562 66.049 42.807 66.625 43.526 67.098 44 67 44.642 66.867 45.173 66.467 45.308 65.838 45.594 64.506 45.798 63.154 44.968 61.891A3 3 0 0 1 44.54 60.78C44.319 59.44 44.007 58.094 43.993 56.747 43.973 54.897 43.282 53.468 41.934 52.304 40.868 52.62 40.55 52.956 40.66 53.771 41.148 57.41 41.65 61.049 42.167 64.688" fill="#000000" data-fill-palette-color="accent"></path><path d="M54.99 65.428C55.562 65.1 55.928 64.629 55.883 63.934 55.851 63.455 55.793 62.981 55.731 62.506A20.6 20.6 0 0 1 55.836 56.363C56.034 55.211 55.742 54.363 55.236 53.467 54.827 52.74 54.208 52.41 53.217 52.582 53.089 52.957 52.832 53.385 52.809 53.826 52.658 56.625 52.507 59.426 52.468 62.228 52.454 63.236 52.618 64.283 53.342 65.121 53.806 65.656 54.371 65.783 54.99 65.428" fill="#000000" data-fill-palette-color="accent"></path></svg></g></svg></g></svg></g></svg></g></svg></g><g></g></svg></g><defs></defs></svg><rect width="76.80087708553114" height="95.481" fill="none" stroke="none" visibility="hidden"></rect></g></svg></g></svg>